<?xml version="1.0" encoding="UTF-8" standalone="no"?>
<!-- Created with Inkscape (http://www.inkscape.org/) -->
<svg
   xmlns:dc="http://purl.org/dc/elements/1.1/"
   xmlns:cc="http://creativecommons.org/ns#"
   xmlns:rdf="http://www.w3.org/1999/02/22-rdf-syntax-ns#"
   xmlns:svg="http://www.w3.org/2000/svg"
   xmlns="http://www.w3.org/2000/svg"
   xmlns:sodipodi="http://sodipodi.sourceforge.net/DTD/sodipodi-0.dtd"
   xmlns:inkscape="http://www.inkscape.org/namespaces/inkscape"
   width="640px"
   height="480px"
   id="svg2383"
   sodipodi:version="0.32"
   inkscape:version="0.46"
   inkscape:export-filename="/home/mark/test1.png"
   inkscape:export-xdpi="90"
   inkscape:export-ydpi="90"
   sodipodi:docname="title.svg"
   inkscape:output_extension="org.inkscape.output.svg.inkscape">
  <defs
     id="defs2385">
    <inkscape:perspective
       sodipodi:type="inkscape:persp3d"
       inkscape:vp_x="0 : 240 : 1"
       inkscape:vp_y="0 : 1000 : 0"
       inkscape:vp_z="640 : 240 : 1"
       inkscape:persp3d-origin="320 : 160 : 1"
       id="perspective2391" />
    <inkscape:perspective
       id="perspective2461"
       inkscape:persp3d-origin="372.04724 : 350.78739 : 1"
       inkscape:vp_z="744.09448 : 526.18109 : 1"
       inkscape:vp_y="0 : 1000 : 0"
       inkscape:vp_x="0 : 526.18109 : 1"
       sodipodi:type="inkscape:persp3d" />
  </defs>
  <sodipodi:namedview
     id="base"
     pagecolor="#ffffff"
     bordercolor="#666666"
     borderopacity="1.0"
     inkscape:pageopacity="0.0"
     inkscape:pageshadow="2"
     inkscape:zoom="1.8751224"
     inkscape:cx="285.5972"
     inkscape:cy="211.09902"
     inkscape:current-layer="layer1"
     inkscape:document-units="px"
     showgrid="false"
     inkscape:window-width="1440"
     inkscape:window-height="826"
     inkscape:window-x="0"
     inkscape:window-y="25" />
  <metadata
     id="metadata2388">
    <rdf:RDF>
      <cc:Work
         rdf:about="">
        <dc:format>image/svg+xml</dc:format>
        <dc:type
           rdf:resource="http://purl.org/dc/dcmitype/StillImage" />
      </cc:Work>
    </rdf:RDF>
  </metadata>
  <g
     id="layer1"
     inkscape:label="Layer 1"
     inkscape:groupmode="layer">
    <path
       style="fill:#6e6e6e;fill-opacity:1"
       d="M 489.8668,121.55207 C 476.87584,121.89291 475.69464,141.89031 486.3981,146.65677 C 496.98842,159.8447 490.02637,177.87708 492.16481,193.26735 C 491.6609,223.81701 493.94975,255.03442 488.95627,285.14441 C 482.38755,298.04702 492.79246,311.43321 502.8744,318.83411 C 510.6448,325.208 523.53533,325.61398 529.62671,316.70954 C 553.52221,293.18098 580.29754,272.17245 601.06371,245.40607 C 611.93632,232.01616 623.52855,218.24404 629.22162,201.93909 C 629.5059,190.19701 611.78683,185.55586 606.0306,195.6689 C 581.21674,220.74282 559.29244,249.3819 528.67283,267.75758 C 526.06064,233.67432 527.56825,199.07003 533.00869,165.43107 C 537.96976,156.18814 539.16289,142.12696 528.41267,136.42411 C 517.08246,128.82511 503.87584,121.74495 489.8668,121.55207 z M 291.97775,129.35664 C 278.92806,129.59908 277.60193,149.79478 288.42233,154.50469 C 298.9069,167.19231 292.05845,184.87801 294.17828,199.81447 C 293.50247,230.99864 296.33037,263.04091 290.59026,293.64271 C 284.54741,306.86313 295.65733,319.91972 305.76581,327.20234 C 313.88636,333.59966 326.8253,332.7661 332.4314,323.60356 C 349.68394,306.12537 369.45561,291.46548 385.71139,272.84588 C 403.00225,254.31508 420.11573,234.69367 431.02905,211.65143 C 433.177,200.54608 416.98024,192.33054 410.0306,202.01823 C 387.51102,222.02522 370.43699,248.14688 345.37875,265.13339 C 340.92966,267.78127 333.61127,275.52038 330.53349,274.13652 C 328.21202,240.57189 329.52405,206.47395 335.07628,173.36571 C 339.16379,164.34121 341.4472,150.95464 331.34744,144.83569 C 319.73401,137.4148 306.22932,129.36058 291.97775,129.35664 z M 432.67669,138.59204 C 420.92864,141.15879 421.7243,157.91469 430.07517,164.00023 C 439.63822,173.7838 432.88264,188.93462 433.15363,201.02856 C 427.14932,246.14638 404.72749,289.76001 369.24292,318.70404 C 362.32152,325.70364 366.0842,340.43474 377.00413,339.77635 C 389.63086,339.38583 398.14237,328.36747 408.04895,321.86922 C 444.3318,291.63833 465.44314,246.33953 471.91625,199.76138 C 473.51851,188.88451 478.59993,178.86172 481.49857,168.50954 C 481.5562,154.13304 465.3791,149.28739 454.96305,143.70836 C 447.9773,140.61675 440.41461,138.11253 432.67669,138.59204 z M 178.42134,146.30989 C 171.33152,148.06403 166.76349,156.35212 158.83277,154.62388 C 118.36778,159.10316 77.114972,163.3997 36.638438,160.83505 C 30.243822,154.54304 16.518023,151.71168 12.487641,162.0491 C 7.8805269,177.1444 21.407795,189.60083 32.432636,197.38643 C 43.167793,204.07494 56.449039,201.90797 67.466462,197.38643 C 98.528403,190.03727 130.7071,188.65506 162.55205,186.32996 C 162.93457,209.59162 159.77755,232.70525 157.00215,255.74722 C 117.89952,257.29885 78.944821,264.26655 39.933688,264.85255 C 34.090581,260.75181 28.785242,251.60951 20.335564,255.35699 C 10.478956,258.31066 8.1402649,271.22643 13.398171,279.11755 C 20.055365,295.66442 37.112033,311.91215 56.193205,307.38741 C 65.758571,303.00662 74.613169,296.49104 85.460313,296.11416 C 121.58759,288.08548 159.07959,287.86995 195.72145,291.77829 C 207.16594,290.96731 215.7564,275.95373 207.25486,266.93377 C 203.90418,262.18473 198.48618,259.32825 193.55352,256.48432 C 196.22494,234.33775 197.20962,211.27695 205.91075,190.53575 C 211.94965,185.88756 219.31359,183.43355 224.98857,178.22189 C 212.75929,164.06645 198.43696,147.67069 178.42134,146.30989 z M 235.65481,146.30989 C 224.5842,147.47184 223.18054,162.44085 229.75802,169.42007 C 240.6216,177.3207 236.5823,192.52351 235.52473,203.93359 C 234.73284,239.12351 220.39746,273.22735 196.86511,299.25569 C 187.84445,310.99614 175.56974,320.5139 167.66839,332.92569 C 164.44251,343.74823 179.40573,352.99977 187.65755,345.17631 C 229.33405,321.45394 258.23706,278.49992 268.60207,231.98599 C 273.28659,215.01536 275.06651,197.42387 282.26539,181.38707 C 285.46742,172.88182 280.8966,163.56934 272.63977,160.0546 C 261.57408,152.86391 249.07549,146.68378 235.65481,146.30989 z"
       id="path2473" />
    <path
       style="fill:#cccccc;fill-opacity:1"
       d="M 293.2207,137.43098 C 287.78784,137.72856 288.89687,144.30543 292.57033,146.49295 C 301.47802,153.42715 303.52387,165.14252 302.70478,175.97651 C 302.85174,215.10876 303.77601,254.53583 300.67839,293.47891 C 298.52005,297.11107 295.74956,301.66911 298.51046,306.05293 C 303.38619,313.67272 310.55261,323.51971 320.62339,323.04953 C 326.00951,321.51723 327.03142,314.67357 332.1568,312.03643 C 365.33907,283.40759 397.49951,252.31424 420.86868,214.86961 C 424.0581,211.80087 423.67722,203.84316 417.92029,206.32795 C 402.41745,217.9006 391.84196,235.27825 377.46663,248.29916 C 361.45255,263.9154 343.70664,278.29222 324.17881,289.09968 C 319.47324,260.66983 321.87388,231.12424 323.13819,202.29559 C 324.23784,187.88211 325.13548,173.15271 331.02947,160.02087 C 331.83457,150.33856 319.47468,147.80054 313.22546,143.48773 C 307.01547,140.61184 300.26053,137.28514 293.2207,137.43098 z M 491.22988,129.60229 C 485.74942,129.86327 486.92052,136.49162 490.53614,138.6209 C 499.4717,145.62448 501.40561,157.32256 500.71396,168.14781 C 500.76471,207.27884 501.83747,246.71737 498.64422,285.65021 C 495.98432,289.66561 493.80122,294.96057 497.12666,299.525 C 502.3296,306.60543 509.85224,317.17402 519.93333,314.83062 C 524.45166,311.36071 527.10742,305.64398 532.15127,302.31433 C 565.30908,273.84679 597.17818,242.65886 619.96183,205.00306 C 623.41404,200.90385 618.37503,195.46988 614.41191,199.36642 C 596.46876,215.25239 582.61303,235.80566 564.1592,251.09334 C 550.87437,262.18222 537.44227,273.25334 522.18799,281.22763 C 517.47248,252.18059 519.81502,222.36596 521.2547,193.08358 C 522.41075,179.30605 523.03523,165.19393 528.95194,152.5824 C 530.2228,142.66983 517.48142,139.95707 511.19708,135.64756 C 505.01667,132.74826 498.25491,129.47544 491.22988,129.60229 z M 237.20128,154.25416 C 230.10388,156.36132 237.0476,164.09205 239.84615,167.52192 C 248.93159,175.9398 244.5977,190.04427 244.78904,201.03819 C 239.94409,245.64642 236.81366,268.56975 188.7777,321.20417 C 184.83177,326.40039 177.41711,330.06537 175.80537,336.53409 C 178.49207,342.97145 186.27173,336.63751 189.89695,334.40952 C 220.30356,313.91176 244.07341,283.59253 255.42753,248.66335 C 262.20101,228.80792 265.22518,207.89265 270.5441,187.77043 C 273.39777,181.78888 279.64007,172.44107 270.71754,168.17229 C 260.58522,162.01509 249.17557,155.28525 237.20128,154.25416 z M 435.21046,146.42546 C 428.29012,148.50598 434.78228,156.14816 437.52333,159.24671 C 446.97913,167.88148 442.62831,181.98372 442.79823,193.25285 C 437.92732,237.76614 420.25998,282.56768 386.78687,313.37549 C 383.05449,318.71356 374.4911,322.51299 373.94463,329.13898 C 377.56139,335.16637 385.03042,328.04161 389.12018,325.80036 C 424.02355,301.88697 449.49457,264.82344 458.40541,223.34469 C 463.78102,207.41002 463.746,189.79776 470.93802,174.73869 C 474.26296,170.22889 474.73791,162.97675 468.68337,160.34361 C 458.6449,154.18921 447.2,147.50147 435.21046,146.42546 z M 180.41243,154.25506 C 175.32839,155.77297 172.83216,161.62631 166.97123,161.88619 C 124.54374,167.20691 81.455434,170.73227 38.592402,169.51585 C 31.446203,171.117 28.310166,160.95006 21.41612,163.49047 C 16.889569,169.01023 23.364876,176.1489 26.402369,180.8773 C 33.573928,188.64722 44.998803,197.08448 55.97299,191.67361 C 90.585898,181.7133 127.44226,180.48227 163.40437,177.57274 C 175.33096,173.08986 170.36543,186.47987 171.22039,193.71147 C 170.76436,217.13245 167.72971,240.31138 164.75994,263.4756 C 125.50898,265.46713 86.473389,270.22318 47.34514,273.48662 C 39.84442,274.37644 32.18128,271.70414 28.526943,264.90643 C 24.851834,259.90184 17.524422,264.86377 19.595059,270.32628 C 23.346669,283.88984 34.233477,297.59584 48.341866,299.8969 C 57.32217,301.36157 63.42173,291.21813 72.492652,290.48806 C 106.28408,282.16394 142.02987,278.56357 176.68358,281.68625 C 184.67423,282.07112 195.32992,286.11401 201.78825,279.64839 C 205.56349,272.17621 195.7004,266.96021 190.47164,263.6924 C 186.75186,262.76902 184.12916,260.93986 185.44203,256.71165 C 187.42226,233.6013 190.65184,210.11943 197.14888,187.90141 C 200.95791,182.41236 207.42156,179.9483 212.88808,176.49807 C 204.44012,166.59885 193.37054,157.22037 180.67257,154.2117 L 180.41243,154.25506 z"
       id="path2467"
       sodipodi:nodetypes="ccccccccccccccccccccccccccccccccccccccccccccccccccccccccccccccsccccccccc" />
    <path
       style="font-size:144px;font-style:normal;font-variant:normal;font-weight:normal;font-stretch:normal;fill:#da0f0f;fill-opacity:1;stroke:none;stroke-width:1px;stroke-linecap:butt;stroke-linejoin:miter;stroke-opacity:1;font-family:Sans;-inkscape-font-specification:Sans"
       d="M 96.25,160.03125 C 90.406244,161.3539 81.956711,156.82408 77.9375,162.875 C 77.279022,201.0875 77.845369,239.51691 77.65625,277.8125 C 84.235696,275.33067 93.012092,280.82295 98.1875,274.84375 C 99.315954,264.89126 98.318209,254.44766 98.65625,244.3125 C 110.10901,255.34948 121.62969,266.31646 133.03125,277.40625 C 142.51042,277.40625 151.98958,277.40625 161.46875,277.40625 C 145.5571,262.20565 129.75105,246.89514 113.90625,231.625 C 129.47912,217.88536 145.05243,204.14623 160.625,190.40625 C 150.70904,191.60499 140.20615,189.20258 130.625,191.65625 C 119.96875,201.04167 109.3125,210.42708 98.65625,219.8125 C 98.65625,199.72917 98.65625,179.64583 98.65625,159.5625 C 97.854167,159.71875 97.052083,159.875 96.25,160.03125 z M 190.3125,188.71875 C 170.9454,187.75532 153.42795,203.96455 151.875,223.15625 C 148.48524,242.23797 153.38442,265.8239 172.03125,275.21875 C 191.00458,284.88377 218.76877,278.27563 226.78125,257.25 C 234.04421,239.75021 233.12166,217.73474 221.6875,202.21875 C 214.22646,192.99349 202.10415,188.21259 190.3125,188.71875 z M 286.4375,188.78125 C 279.00024,188.30259 270.82966,192.07285 265.46875,195 C 262.92296,188.12444 254.22661,191.21737 248.78125,190.21875 C 241.94988,191.36422 244.43113,200.19421 244.21875,205 C 244.07206,229.26189 244.19854,253.54319 244.15625,277.8125 C 250.7357,275.33067 259.51209,280.82295 264.6875,274.84375 C 266.60282,256.8996 263.12534,238.02434 266.65625,220.1875 C 270.059,208.1302 285.84025,204.79685 295.25,211.84375 C 301.1905,216.8232 297.10685,203.71623 298.2466,200.00001 C 297.67613,195.85172 300.45344,188.78295 294.15625,189.40625 C 291.62515,188.90811 289.02113,188.69838 286.4375,188.78125 z M 437.1875,188.78125 C 429.75024,188.30259 421.57966,192.07285 416.21875,195 C 413.67296,188.12444 404.97661,191.21737 399.53125,190.21875 C 392.69988,191.36422 395.18113,200.19421 394.96875,205 C 394.82206,229.26189 394.94854,253.54319 394.90625,277.8125 C 401.4857,275.33067 410.26209,280.82295 415.4375,274.84375 C 417.35282,256.8996 413.87534,238.02434 417.40625,220.1875 C 420.809,208.1302 436.59025,204.79685 446,211.84375 C 451.9405,216.8232 447.85685,203.71623 448.9966,200.00001 C 448.42613,195.85172 451.20344,188.78295 444.90625,189.40625 C 442.37515,188.90811 439.77113,188.69838 437.1875,188.78125 z M 321.1875,190.6875 C 315.32918,192.02018 306.47597,187.33175 302.78125,193.875 C 303.31657,214.8509 300.95426,236.19797 304.23635,257.00292 C 307.23634,270.04092 319.65605,280.09347 333.125,279.5 C 340.99737,279.90003 349.50912,276.91654 355.28125,272.5625 C 356.65421,278.89064 364.27368,277.56871 368.96875,277.78125 C 374.0321,279.42518 377.65658,274.03614 376.78125,269.4375 C 376.32991,243.05005 376.72855,216.64427 376.59375,190.25 C 370.04627,192.74183 361.25475,187.22507 356.125,193.21875 C 354.23404,211.36209 357.52279,230.21906 354.4375,248.40625 C 351.45374,259.28101 334.64845,264.90451 327,255.84375 C 321.02979,246.27057 324.62941,234.34997 323.59375,223.71875 C 323.59375,212.55208 323.59375,201.38542 323.59375,190.21875 C 322.79167,190.375 321.98958,190.53125 321.1875,190.6875 z M 471.9375,190.6875 C 466.07918,192.02018 457.22597,187.33175 453.53125,193.875 C 454.06657,214.8509 451.70426,236.19797 454.98635,257.00292 C 457.98634,270.04092 470.40605,280.09347 483.875,279.5 C 491.74737,279.90003 500.25912,276.91654 506.03125,272.5625 C 507.40421,278.89064 515.02368,277.56871 519.71875,277.78125 C 524.7821,279.42518 528.40658,274.03614 527.53125,269.4375 C 527.07991,243.05005 527.47855,216.64427 527.34375,190.25 C 520.79627,192.74183 512.00475,187.22507 506.875,193.21875 C 504.98404,211.36209 508.27279,230.21906 505.1875,248.40625 C 502.20374,259.28101 485.39845,264.90451 477.75,255.84375 C 471.77979,246.27057 475.37941,234.34997 474.34375,223.71875 C 474.34375,212.55208 474.34375,201.38542 474.34375,190.21875 C 473.54167,190.375 472.73958,190.53125 471.9375,190.6875 z M 191.71875,207.65625 C 203.38421,207.76398 209.80535,220.78868 209.46875,231.1875 C 210.39299,242.07612 207.36167,256.58875 195.4375,260.0625 C 185.3981,262.89711 174.87019,254.89586 173.875,244.6875 C 171.13909,232.91125 171.89734,217.30973 182.78125,209.78125 C 185.41253,208.22125 188.61885,207.67248 191.71875,207.65625 z"
       id="text3251" />
  </g>
</svg>
